<svg xmlns="http://www.w3.org/2000/svg" xmlns:xlink="http://www.w3.org/1999/xlink" version="1.1" id="Layer_1" x="0px" y="0px" viewBox="0 -360 1440 1440" enable-background="new 0 -360 1440 1440" xml:space="preserve">
<g id="Safety" display="none">
	<g display="inline">
		<rect x="289.6" y="-73.2" opacity="0.4" fill="#FFFFFF" enable-background="new    " width="866" height="866"/>
		<rect x="2.6" y="-360.2" fill="none" width="1440" height="1440"/>
	</g>
	<g display="inline">
		<rect x="-1438" y="-1672.4" fill="none" width="1440" height="1440"/>
	</g>
</g>
<g>
	<path fill="#4285F4" d="M970,2.8H463.3c-25.9,0-46.9,21-46.9,46.9v450.4h600.5V49.8C1016.9,23.8,995.9,2.8,970,2.8z"/>
	<g>
		<path fill="#424242" d="M475.7,739.4c-17.6,0-32.2-13.6-33.2-31l-11.2-194.2H1002l-11.2,194.2c-1,17.4-15.6,31-33.2,31H475.7z"/>
		<path fill="#3367D6" d="M987.1,528.3l-10.3,179.3c-0.6,9.9-9,17.7-19.1,17.7h-482c-10.1,0-18.5-7.8-19.1-17.7l-10.3-179.3H987.1     M1016.9,500.1H416.4l12,209.1c1.4,24.8,22.1,44.2,47.2,44.2h482c25.1,0,45.8-19.4,47.2-44.2L1016.9,500.1L1016.9,500.1z"/>
	</g>
	<g opacity="3.000000e-02">
		<defs>
			<path id="SVGID_1_" opacity="3.000000e-02" d="M416.4,500.1l12,209.1c1.4,24.8,22.1,44.2,47.2,44.2h482     c25.1,0,45.8-19.4,47.2-44.2l12-209.1H416.4z"/>
		</defs>
		<clipPath id="SVGID_2_">
			<use xlink:href="#SVGID_1_" overflow="visible"/>
		</clipPath>
	</g>
	<g>
		<g>
			<circle fill="#757575" cx="496.2" cy="561.1" r="18.8"/>
			<circle fill="#757575" cx="551.3" cy="561.1" r="18.8"/>
			<circle fill="#757575" cx="606.4" cy="561.1" r="18.8"/>
			<circle fill="#757575" cx="661.5" cy="561.1" r="18.8"/>
			<circle fill="#757575" cx="716.7" cy="561.1" r="18.8"/>
			<circle fill="#757575" cx="771.8" cy="561.1" r="18.8"/>
			<circle fill="#757575" cx="826.9" cy="561.1" r="18.8"/>
			<circle fill="#757575" cx="882" cy="561.1" r="18.8"/>
			<circle fill="#757575" cx="937.2" cy="561.1" r="18.8"/>
		</g>
		<circle fill="#757575" cx="523.1" cy="604.9" r="18.8"/>
		<circle fill="#757575" cx="578.3" cy="604.9" r="18.8"/>
		<circle fill="#757575" cx="633.4" cy="604.9" r="18.8"/>
		<circle fill="#757575" cx="688.5" cy="604.9" r="18.8"/>
		<circle fill="#757575" cx="743.6" cy="604.9" r="18.8"/>
		<circle fill="#757575" cx="798.8" cy="604.9" r="18.8"/>
		<circle fill="#757575" cx="853.9" cy="604.9" r="18.8"/>
		<circle fill="#757575" cx="909" cy="604.9" r="18.8"/>
		<circle fill="#757575" cx="495" cy="648.7" r="18.8"/>
		<circle fill="#757575" cx="550.1" cy="648.7" r="18.8"/>
		<circle fill="#757575" cx="605.2" cy="648.7" r="18.8"/>
		<circle fill="#757575" cx="660.4" cy="648.7" r="18.8"/>
		<circle fill="#757575" cx="715.5" cy="648.7" r="18.8"/>
		<circle fill="#757575" cx="770.6" cy="648.7" r="18.8"/>
		<circle fill="#757575" cx="825.7" cy="648.7" r="18.8"/>
		<circle fill="#757575" cx="880.9" cy="648.7" r="18.8"/>
		<circle fill="#757575" cx="936" cy="648.7" r="18.8"/>
		<circle fill="#757575" cx="522" cy="692.5" r="18.8"/>
		<circle fill="#757575" cx="577.1" cy="692.5" r="18.8"/>
		<circle fill="#757575" cx="632.2" cy="692.5" r="18.8"/>
		<circle fill="#757575" cx="687.3" cy="692.5" r="18.8"/>
		<circle fill="#757575" cx="742.5" cy="692.5" r="18.8"/>
		<circle fill="#757575" cx="797.6" cy="692.5" r="18.8"/>
		<circle fill="#757575" cx="852.7" cy="692.5" r="18.8"/>
		<circle fill="#757575" cx="907.8" cy="692.5" r="18.8"/>
	</g>
	<path fill="#3367D6" d="M1016.9,232.7H416.4v-183c0-25.9,21-46.9,46.9-46.9H970c25.9,0,46.9,21,46.9,46.9V232.7z"/>
	<g>
		<defs>
			<rect id="SVGID_3_" x="416.4" y="49.8" width="600.5" height="60.4"/>
		</defs>
		<clipPath id="SVGID_4_">
			<use xlink:href="#SVGID_3_" overflow="visible"/>
		</clipPath>
	</g>
	<rect x="416.4" y="110.7" fill="#BDBDBD" width="600.5" height="122"/>
	<rect x="491.5" y="-34.7" fill="#FFFFFF" width="450.4" height="267.4"/>
	<g>
		<defs>
			<path id="SVGID_5_" d="M885.5,232.7c0,93.3-75.6,168.9-168.9,168.9S547.8,326,547.8,232.7H885.5z"/>
		</defs>
		<use xlink:href="#SVGID_5_" overflow="visible" fill="#424242"/>
		<clipPath id="SVGID_6_">
			<use xlink:href="#SVGID_5_" overflow="visible"/>
		</clipPath>
		
			<line clip-path="url(#SVGID_6_)" fill="none" stroke="#616161" stroke-width="9.3831" stroke-miterlimit="10" x1="760.4" y1="395.9" x2="716.7" y2="232.7"/>
		
			<line clip-path="url(#SVGID_6_)" fill="none" stroke="#616161" stroke-width="9.3831" stroke-miterlimit="10" x1="801.1" y1="379" x2="716.7" y2="232.7"/>
		
			<line clip-path="url(#SVGID_6_)" fill="none" stroke="#616161" stroke-width="9.3831" stroke-miterlimit="10" x1="836.1" y1="352.2" x2="716.7" y2="232.7"/>
		
			<line clip-path="url(#SVGID_6_)" fill="none" stroke="#616161" stroke-width="9.3831" stroke-miterlimit="10" x1="862.9" y1="317.2" x2="716.7" y2="232.7"/>
		
			<line clip-path="url(#SVGID_6_)" fill="none" stroke="#616161" stroke-width="9.3831" stroke-miterlimit="10" x1="879.8" y1="276.4" x2="716.7" y2="232.7"/>
		
			<line clip-path="url(#SVGID_6_)" fill="none" stroke="#616161" stroke-width="9.3831" stroke-miterlimit="10" x1="553.5" y1="276.4" x2="716.7" y2="232.7"/>
		
			<line clip-path="url(#SVGID_6_)" fill="none" stroke="#616161" stroke-width="9.3831" stroke-miterlimit="10" x1="570.4" y1="317.2" x2="716.7" y2="232.7"/>
		
			<line clip-path="url(#SVGID_6_)" fill="none" stroke="#616161" stroke-width="9.3831" stroke-miterlimit="10" x1="597.2" y1="352.2" x2="716.7" y2="232.7"/>
		
			<line clip-path="url(#SVGID_6_)" fill="none" stroke="#616161" stroke-width="9.3831" stroke-miterlimit="10" x1="632.2" y1="379" x2="716.7" y2="232.7"/>
		
			<line clip-path="url(#SVGID_6_)" fill="none" stroke="#616161" stroke-width="9.3831" stroke-miterlimit="10" x1="672.9" y1="395.9" x2="716.7" y2="232.7"/>
		
			<line clip-path="url(#SVGID_6_)" fill="none" stroke="#616161" stroke-width="9.3831" stroke-miterlimit="10" x1="716.7" y1="401.6" x2="716.7" y2="232.7"/>
		
			<circle clip-path="url(#SVGID_6_)" fill="#424242" stroke="#616161" stroke-width="18.7662" stroke-miterlimit="10" cx="716.7" cy="232.7" r="61"/>
	</g>
	<g opacity="0.3">
		<line fill="none" stroke="#000000" stroke-width="9.3831" stroke-miterlimit="10" x1="575.9" y1="87.3" x2="857.4" y2="87.3"/>
		<line fill="none" stroke="#000000" stroke-width="9.3831" stroke-miterlimit="10" x1="575.9" y1="49.2" x2="819.9" y2="49.2"/>
		<line fill="none" stroke="#000000" stroke-width="9.3831" stroke-miterlimit="10" x1="575.9" y1="124.8" x2="819.9" y2="124.8"/>
		<line fill="none" stroke="#000000" stroke-width="9.3831" stroke-miterlimit="10" x1="575.9" y1="162.3" x2="857.4" y2="162.3"/>
	</g>
	<path fill="#E0E0E0" d="M416.4,270.3L416.4,270.3l0-159.5h0c-20.7,0-37.5,16.8-37.5,37.5v84.4C378.9,253.5,395.7,270.3,416.4,270.3   z"/>
	<rect x="1016.9" y="110.7" fill="#424242" width="42.2" height="122"/>
	<g>
		<defs>
			<rect id="SVGID_7_" x="416.4" y="110.7" width="600.5" height="122"/>
		</defs>
		<clipPath id="SVGID_8_">
			<use xlink:href="#SVGID_7_" overflow="visible"/>
		</clipPath>
	</g>
	<line fill="none" stroke="#9E9E9E" stroke-width="9.3831" stroke-miterlimit="10" x1="416.4" y1="199.9" x2="1016.9" y2="199.9"/>
</g>
</svg>