<svg xmlns="http://www.w3.org/2000/svg" xmlns:xlink="http://www.w3.org/1999/xlink" version="1.1" id="Layer_1" x="0px" y="0px" viewBox="0 -360 1440 1440" enable-background="new 0 -360 1440 1440" xml:space="preserve">
<g id="Safety" display="none">
	<g display="inline">
		<rect x="289.6" y="-73.2" opacity="0.4" fill="#FFFFFF" enable-background="new    " width="866" height="866"/>
		<rect x="2.6" y="-360.2" fill="none" width="1440" height="1440"/>
	</g>
	<g display="inline">
		<rect x="-1438" y="-1672.4" fill="none" width="1440" height="1440"/>
	</g>
</g>
<g>
	<g>
		<line fill="none" stroke="#FFE082" stroke-width="72.0467" stroke-miterlimit="10" x1="872.8" y1="513.3" x2="836.8" y2="477.2"/>
		<g>
			<polygon fill="#212121" points="1062.8,792 828.7,557.9 917.8,468.7 1152,702.8    "/>
		</g>
		<g opacity="3.000000e-02">
			<defs>
				<polygon id="SVGID_1_" opacity="3.000000e-02" points="1062.8,792 828.7,557.9 917.8,468.7 1152,702.8     "/>
			</defs>
			<clipPath id="SVGID_2_">
				<use xlink:href="#SVGID_1_" overflow="visible"/>
			</clipPath>
		</g>
		<g>
			<defs>
				<circle id="SVGID_3_" cx="638.7" cy="279.1" r="288.2"/>
			</defs>
			<clipPath id="SVGID_4_">
				<use xlink:href="#SVGID_3_" overflow="visible"/>
			</clipPath>
		</g>
		<g opacity="0.1">
			<path fill="#FFFFFF" d="M841.9,74.8L434.3,482.4c-112.5-112.5-112.5-295,0-407.6C546.9-37.7,729.3-37.7,841.9,74.8z"/>
		</g>
		<path opacity="0.2" fill="#757575" d="M842.4,75.3c112.4,112.4,112.5,295,0,407.5c-112.5,112.5-295.1,112.4-407.6,0L842.4,75.3z"/>
		<g>
			<path fill="#B0BEC5" d="M638.7,27c34.1,0,67.1,6.7,98.1,19.8c30,12.7,57,30.9,80.2,54.1C840.1,124,858.3,151,871,181     c13.1,31.1,19.8,64.1,19.8,98.1s-6.7,67.1-19.8,98.1c-12.7,30-30.9,57-54.1,80.2c-23.2,23.2-50.1,41.4-80.2,54.1     c-31.1,13.1-64.1,19.8-98.1,19.8c-34.1,0-67.1-6.7-98.1-19.8c-30-12.7-57-30.9-80.2-54.1c-23.2-23.2-41.4-50.1-54.1-80.2     c-13.1-31.1-19.8-64.1-19.8-98.1s6.7-67.1,19.8-98.1c12.7-30,30.9-57,54.1-80.2c23.2-23.2,50.1-41.4,80.2-54.1     C571.6,33.6,604.6,27,638.7,27 M638.7-9.1c-159.2,0-288.2,129-288.2,288.2s129,288.2,288.2,288.2s288.2-129,288.2-288.2     S797.8-9.1,638.7-9.1L638.7-9.1z"/>
		</g>
	</g>
</g>
</svg>
